<svg width="24" height="24" viewBox="0 0 24 24" fill="none" xmlns="http://www.w3.org/2000/svg">
<g clip-path="url(#clip0_799_2094)">
<path d="M12 23.1431C18.1541 23.1431 23.1429 18.1544 23.1429 12.0003C23.1429 5.84625 18.1541 0.857422 12 0.857422C5.84601 0.857422 0.857178 5.84625 0.857178 12.0003C0.857178 18.1544 5.84601 23.1431 12 23.1431Z" stroke="black" stroke-width="2" stroke-linecap="round" stroke-linejoin="round"/>
<path d="M9.42847 17.1426H14.5713" stroke="black" stroke-width="2" stroke-linecap="round" stroke-linejoin="round"/>
<path d="M12 7.71429C12.4733 7.71429 12.8571 7.33053 12.8571 6.85714C12.8571 6.38376 12.4733 6 12 6C11.5266 6 11.1428 6.38376 11.1428 6.85714C11.1428 7.33053 11.5266 7.71429 12 7.71429Z" stroke="black" stroke-width="2" stroke-linecap="round" stroke-linejoin="round"/>
<path d="M11.9999 17.1426V11.1426H10.2856" stroke="black" stroke-width="2" stroke-linecap="round" stroke-linejoin="round"/>
</g>
<defs>
<clipPath id="clip0_799_2094">
<rect width="24" height="24" fill="white"/>
</clipPath>
</defs>
</svg>
