<svg width="24" height="24" viewBox="0 0 24 24" fill="none" xmlns="http://www.w3.org/2000/svg">
<g clip-path="url(#clip0_799_2070)">
<path d="M8.57136 11.1427C10.9383 11.1427 12.8571 9.22393 12.8571 6.857C12.8571 4.49007 10.9383 2.57129 8.57136 2.57129C6.20443 2.57129 4.28564 4.49007 4.28564 6.857C4.28564 9.22393 6.20443 11.1427 8.57136 11.1427Z" stroke="black" stroke-width="2" stroke-linecap="round" stroke-linejoin="round"/>
<path d="M0.857178 23.1426H8.57146H16.2857V22.2133C16.2721 20.9065 15.9275 19.6247 15.2841 18.4873C14.6408 17.35 13.7196 16.3942 12.6068 15.7094C11.4939 15.0245 10.2256 14.6329 8.92035 14.5711C8.80399 14.5656 8.68766 14.5628 8.57146 14.5625C8.45527 14.5628 8.33894 14.5656 8.22257 14.5711C6.91733 14.6329 5.64903 15.0245 4.53615 15.7094C3.42329 16.3942 2.50215 17.35 1.85878 18.4873C1.21542 19.6247 0.870825 20.9065 0.857178 22.2133V23.1426Z" stroke="black" stroke-width="2" stroke-linecap="round" stroke-linejoin="round"/>
<path d="M15.4285 11.1427C17.7954 11.1427 19.7142 9.22393 19.7142 6.857C19.7142 4.49007 17.7954 2.57129 15.4285 2.57129" stroke="black" stroke-width="2" stroke-linecap="round" stroke-linejoin="round"/>
<path d="M19.7143 23.1426H23.1428V22.2133C23.1291 20.9065 22.7845 19.6247 22.1412 18.4873C21.4978 17.35 20.5767 16.3943 19.4638 15.7094C18.7445 15.2667 17.96 14.9465 17.1428 14.7588" stroke="black" stroke-width="2" stroke-linecap="round" stroke-linejoin="round"/>
</g>
<defs>
<clipPath id="clip0_799_2070">
<rect width="24" height="24" fill="white"/>
</clipPath>
</defs>
</svg>
