<svg width="24" height="24" viewBox="0 0 24 24" fill="none" xmlns="http://www.w3.org/2000/svg">
<g clip-path="url(#clip0_799_2055)">
<path d="M5.57146 10.286C8.17509 10.286 10.2857 8.17534 10.2857 5.57171C10.2857 2.96808 8.17509 0.857422 5.57146 0.857422C2.96784 0.857422 0.857178 2.96808 0.857178 5.57171C0.857178 8.17534 2.96784 10.286 5.57146 10.286Z" stroke="#0C050D" stroke-width="2" stroke-linecap="round" stroke-linejoin="round"/>
<path d="M18.4286 10.286C21.0323 10.286 23.1429 8.17534 23.1429 5.57171C23.1429 2.96808 21.0323 0.857422 18.4286 0.857422C15.825 0.857422 13.7144 2.96808 13.7144 5.57171C13.7144 8.17534 15.825 10.286 18.4286 10.286Z" stroke="#0C050D" stroke-width="2" stroke-linecap="round" stroke-linejoin="round"/>
<path d="M5.57146 23.1434C8.17509 23.1434 10.2857 21.0328 10.2857 18.4291C10.2857 15.8255 8.17509 13.7148 5.57146 13.7148C2.96784 13.7148 0.857178 15.8255 0.857178 18.4291C0.857178 21.0328 2.96784 23.1434 5.57146 23.1434Z" stroke="#0C050D" stroke-width="2" stroke-linecap="round" stroke-linejoin="round"/>
<path d="M18.4286 23.1434C21.0323 23.1434 23.1429 21.0328 23.1429 18.4291C23.1429 15.8255 21.0323 13.7148 18.4286 13.7148C15.825 13.7148 13.7144 15.8255 13.7144 18.4291C13.7144 21.0328 15.825 23.1434 18.4286 23.1434Z" stroke="#0C050D" stroke-width="2" stroke-linecap="round" stroke-linejoin="round"/>
</g>
<defs>
<clipPath id="clip0_799_2055">
<rect width="24" height="24" fill="white"/>
</clipPath>
</defs>
</svg>
