<svg width="25" height="25" viewBox="0 0 25 25" fill="none" xmlns="http://www.w3.org/2000/svg">
<path d="M11.2693 12.1602H23.2693" stroke="#000001" stroke-width="2" stroke-linecap="round" stroke-linejoin="round"/>
<path d="M19.8407 8.73145L23.2693 12.16L19.8407 15.5886" stroke="#000001" stroke-width="2" stroke-linecap="round" stroke-linejoin="round"/>
<path d="M20.1836 19.8571C18.6442 21.4616 16.66 22.5689 14.4863 23.0365C12.3125 23.5041 10.0485 23.3107 7.98553 22.4811C5.92257 21.6516 4.15497 20.2238 2.9101 18.3814C1.66522 16.539 1 14.3664 1 12.1429C1 9.91935 1.66522 7.74668 2.9101 5.90432C4.15497 4.06196 5.92257 2.63417 7.98553 1.80459C10.0485 0.97501 12.3125 0.781589 14.4863 1.2492C16.66 1.71682 18.6442 2.82408 20.1836 4.42858" stroke="#000001" stroke-width="2" stroke-linecap="round" stroke-linejoin="round"/>
</svg>
