<svg width="24" height="24" viewBox="0 0 24 24" fill="none" xmlns="http://www.w3.org/2000/svg">
<path d="M12.0001 13.715C14.367 13.715 16.2858 11.7962 16.2858 9.42927C16.2858 7.06233 14.367 5.14355 12.0001 5.14355C9.63313 5.14355 7.71436 7.06233 7.71436 9.42927C7.71436 11.7962 9.63313 13.715 12.0001 13.715Z" stroke="#000001" stroke-width="2" stroke-linecap="round" stroke-linejoin="round"/>
<path d="M4.67993 20.4C5.44492 19.1443 6.52006 18.1066 7.802 17.3864C9.08394 16.6663 10.5296 16.2881 11.9999 16.2881C13.4703 16.2881 14.9159 16.6663 16.1979 17.3864C17.4798 18.1066 18.5549 19.1443 19.3199 20.4" stroke="#000001" stroke-width="2" stroke-linecap="round" stroke-linejoin="round"/>
<path d="M12 23.1431C18.1541 23.1431 23.1429 18.1543 23.1429 12.0003C23.1429 5.84625 18.1541 0.857422 12 0.857422C5.846 0.857422 0.857178 5.84625 0.857178 12.0003C0.857178 18.1543 5.846 23.1431 12 23.1431Z" stroke="#000001" stroke-width="2" stroke-linecap="round" stroke-linejoin="round"/>
</svg>
