<svg width="25" height="8" viewBox="0 0 25 8" fill="none" xmlns="http://www.w3.org/2000/svg">
<path d="M18.0744 4.03697C18.0833 5.45711 19.2417 6.60119 20.6618 6.59235C22.0819 6.58351 23.226 5.42511 23.2172 4.00497C23.2083 2.58484 22.0499 1.44076 20.6298 1.44959C19.2097 1.45843 18.0656 2.61684 18.0744 4.03697Z" stroke="#000001" stroke-width="2" stroke-linecap="round" stroke-linejoin="round"/>
<path d="M9.50313 4.09068C9.51196 5.51082 10.6704 6.6549 12.0905 6.64606C13.5106 6.63723 14.6547 5.47882 14.6459 4.05868C14.637 2.63855 13.4786 1.49447 12.0585 1.50331C10.6384 1.51214 9.49429 2.67055 9.50313 4.09068Z" stroke="#000001" stroke-width="2" stroke-linecap="round" stroke-linejoin="round"/>
<path d="M0.931837 4.14342C0.940674 5.56355 2.09908 6.70763 3.51922 6.6988C4.93935 6.68996 6.08343 5.53155 6.07459 4.11142C6.06576 2.69128 4.90735 1.5472 3.48722 1.55604C2.06708 1.56488 0.923 2.72329 0.931837 4.14342Z" stroke="#000001" stroke-width="2" stroke-linecap="round" stroke-linejoin="round"/>
</svg>
