<svg width="24" height="24" viewBox="0 0 24 24" fill="none" xmlns="http://www.w3.org/2000/svg">
<g clip-path="url(#clip0_799_2102)">
<path d="M8.96575 3.85742L9.70289 1.95456C9.82721 1.63239 10.0459 1.35527 10.3304 1.1595C10.6149 0.963731 10.9519 0.858442 11.2972 0.857422H12.7029C13.0482 0.858442 13.3852 0.963731 13.6697 1.1595C13.9541 1.35527 14.1729 1.63239 14.2972 1.95456L15.0343 3.85742L17.5372 5.29742L19.56 4.98885C19.8969 4.94313 20.2397 4.99858 20.5449 5.14815C20.8502 5.29772 21.1041 5.53465 21.2743 5.82885L21.96 7.02885C22.1357 7.32773 22.2167 7.67287 22.1922 8.01871C22.1677 8.36456 22.039 8.69485 21.8229 8.96599L20.5715 10.5603V13.4403L21.8572 15.0346C22.0732 15.3057 22.202 15.636 22.2265 15.9818C22.251 16.3277 22.17 16.6728 21.9943 16.9717L21.3086 18.1717C21.1383 18.4659 20.8845 18.7028 20.5792 18.8524C20.274 19.002 19.9312 19.0574 19.5943 19.0117L17.5715 18.7031L15.0686 20.1431L14.3315 22.046C14.2071 22.3682 13.9884 22.6453 13.704 22.8411C13.4195 23.0368 13.0825 23.1421 12.7372 23.1431H11.2972C10.9519 23.1421 10.6149 23.0368 10.3304 22.8411C10.0459 22.6453 9.82721 22.3682 9.70289 22.046L8.96575 20.1431L6.46289 18.7031L4.44004 19.0117C4.10321 19.0574 3.76039 19.002 3.45515 18.8524C3.14991 18.7028 2.89602 18.4659 2.72575 18.1717L2.04004 16.9717C1.86433 16.6728 1.78337 16.3277 1.80785 15.9818C1.83234 15.636 1.96111 15.3057 2.17718 15.0346L3.42861 13.4403V10.5603L2.14289 8.96599C1.92683 8.69485 1.79805 8.36456 1.77357 8.01871C1.74908 7.67287 1.83004 7.32773 2.00575 7.02885L2.69147 5.82885C2.86173 5.53465 3.11562 5.29772 3.42086 5.14815C3.72611 4.99858 4.06892 4.94313 4.40575 4.98885L6.42861 5.29742L8.96575 3.85742ZM8.57147 12.0003C8.57147 12.6784 8.77255 13.3413 9.14928 13.9051C9.52602 14.4689 10.0615 14.9084 10.688 15.1679C11.3145 15.4274 12.0038 15.4953 12.6689 15.363C13.334 15.2307 13.9449 14.9041 14.4244 14.4246C14.9039 13.9452 15.2304 13.3342 15.3627 12.6692C15.495 12.0041 15.4271 11.3147 15.1676 10.6882C14.9081 10.0617 14.4687 9.52626 13.9048 9.14953C13.341 8.77279 12.6781 8.57171 12 8.57171C11.0907 8.57171 10.2187 8.93293 9.57567 9.57591C8.93269 10.2189 8.57147 11.091 8.57147 12.0003V12.0003Z" stroke="#000001" stroke-width="2" stroke-linecap="round" stroke-linejoin="round"/>
</g>
<defs>
<clipPath id="clip0_799_2102">
<rect width="24" height="24" fill="white"/>
</clipPath>
</defs>
</svg>
